<svg xmlns="http://www.w3.org/2000/svg" viewBox="0 0 744.32 592.66"><defs><style>.cls-1{fill:#333;}</style></defs><g id="Layer_2" data-name="Layer 2"><g id="Layer_1-2" data-name="Layer 1"><path class="cls-1" d="M372.16,592.66c-136.34,0-251.17-92.07-285.7-217.43H204.23a186.12,186.12,0,0,0,100.38,93.92Z"/><path class="cls-1" d="M372.16,0,304.61,123.5a186.17,186.17,0,0,0-100.38,93.93H86.46C121,92.07,235.82,0,372.16,0Z"/><path class="cls-1" d="M657.86,217.43H540.1A186.19,186.19,0,0,0,439.71,123.5L372.16,0C508.5,0,623.33,92.07,657.86,217.43Z"/><path class="cls-1" d="M657.86,375.23C623.33,500.59,508.5,592.66,372.16,592.66l67.55-123.51A186.14,186.14,0,0,0,540.1,375.23Z"/><path class="cls-1" d="M172.18,286.77a10.29,10.29,0,1,0,10.22,10.29A10,10,0,0,0,172.18,286.77Zm0,0a10.29,10.29,0,1,0,10.22,10.29A10,10,0,0,0,172.18,286.77Zm0,0a10.29,10.29,0,1,0,10.22,10.29A10,10,0,0,0,172.18,286.77Zm0,0a10.29,10.29,0,1,0,10.22,10.29A10,10,0,0,0,172.18,286.77Zm0,0a10.29,10.29,0,1,0,10.22,10.29A10,10,0,0,0,172.18,286.77Zm151.08,0a10.29,10.29,0,1,0,10.22,10.29A10,10,0,0,0,323.26,286.77Zm0,0a10.29,10.29,0,1,0,10.22,10.29A10,10,0,0,0,323.26,286.77Zm-151.08,0a10.29,10.29,0,1,0,10.22,10.29A10,10,0,0,0,172.18,286.77Zm0,0a10.29,10.29,0,1,0,10.22,10.29A10,10,0,0,0,172.18,286.77Zm151.08,0a10.29,10.29,0,1,0,10.22,10.29A10,10,0,0,0,323.26,286.77Zm0,0a10.29,10.29,0,1,0,10.22,10.29A10,10,0,0,0,323.26,286.77Zm-151.08,0a10.29,10.29,0,1,0,10.22,10.29A10,10,0,0,0,172.18,286.77Zm0,0a10.29,10.29,0,1,0,10.22,10.29A10,10,0,0,0,172.18,286.77Zm151.08,0a10.29,10.29,0,1,0,10.22,10.29A10,10,0,0,0,323.26,286.77Zm237.49-.95a9.91,9.91,0,0,0-9.78,7.59H570.6A9.9,9.9,0,0,0,560.75,285.82Zm0,0a9.91,9.91,0,0,0-9.78,7.59H570.6A9.9,9.9,0,0,0,560.75,285.82Zm-237.49.95a10.29,10.29,0,1,0,10.22,10.29A10,10,0,0,0,323.26,286.77Zm-151.08,0a10.29,10.29,0,1,0,10.22,10.29A10,10,0,0,0,172.18,286.77Zm0,0a10.29,10.29,0,1,0,10.22,10.29A10,10,0,0,0,172.18,286.77Zm151.08,0a10.29,10.29,0,1,0,10.22,10.29A10,10,0,0,0,323.26,286.77Zm237.49-.95a9.91,9.91,0,0,0-9.78,7.59H570.6A9.9,9.9,0,0,0,560.75,285.82Zm0,0a9.91,9.91,0,0,0-9.78,7.59H570.6A9.9,9.9,0,0,0,560.75,285.82Zm-237.49.95a10.29,10.29,0,1,0,10.22,10.29A10,10,0,0,0,323.26,286.77Zm-151.08,0a10.29,10.29,0,1,0,10.22,10.29A10,10,0,0,0,172.18,286.77ZM682.49,234.5H61.83a61.83,61.83,0,0,0,0,123.66H682.49a61.83,61.83,0,1,0,0-123.66ZM104.68,274.8H91v40.87H80.88V274.8H67.16v-9.49h37.52Zm41.67,40.87h-9.49V295.09c0-5-3.21-8.32-8.1-8.32-5.26,0-8.76,3.36-8.76,8.47v20.43h-9.49V263.12H120v19.71a15,15,0,0,1,11.83-5.26c8.75,0,14.52,5.7,14.52,14.45Zm25.83.88c-11.38,0-20-8.4-20-19.49s8.61-19.49,20-19.49,20,8.4,20,19.49S183.57,316.55,172.18,316.55Zm48.76-28.91h-1.39c-7.59,0-11.82,4-11.82,10.3v17.73h-9.49V278.45h9.49v5.62a14.5,14.5,0,0,1,11.82-6.21h1.39Zm40.65,28H252.1V295.09c0-5-3.21-8.32-8.1-8.32-5.26,0-8.76,3.36-8.76,8.47v20.43h-9.49V278.45h9.49v4.16a15.31,15.31,0,0,1,11.83-5c8.75,0,14.52,5.7,14.52,14.45Zm21.09.88c-9.27,0-15.47-5-15.47-12.05h9.56c0,2.56,2.48,4.24,5.91,4.24,3.14,0,5.33-1.46,5.33-3.43,0-6.06-20.22-2.56-20.22-15.91,0-7.52,6.28-11.83,14.45-11.83,8.69,0,14.67,4.82,14.67,11.46h-9.48c0-2.19-2.12-3.72-5.26-3.72-2.92,0-4.89,1.31-4.89,3.21,0,5.91,20.29,2.48,20.29,15.84C297.57,311.66,291.59,316.55,282.68,316.55Zm42.48,0A16,16,0,0,1,313,311.29v4.38h-9.49V263.12H313v19.71a16,16,0,0,1,12.12-5.26c10.36,0,18.1,8.4,18.1,19.49S335.52,316.55,325.16,316.55Zm58.61-.88h-9.49v-4.08a14.43,14.43,0,0,1-11.32,5c-8.39,0-14-5.62-14-14.23V278.45h9.49v21.09c0,4.75,3.06,7.81,7.66,7.81,4.89,0,8.18-3.14,8.18-8V278.45h9.49Zm31-28H413.4c-7.59,0-11.83,4-11.83,10.3v17.73h-9.49V278.45h9.49v5.62a14.52,14.52,0,0,1,11.83-6.21h1.38Zm21.9,41.9H426.46l6-14.23-15.25-36.86H428l9.64,25.32,9.63-25.32h10.66Zm97.43-13.87H524V280.13l-14.82,26.49h-5.76l-14.82-26.49v35.54H478.57V265.31h12.55l15.26,27.15,15.33-27.15h12.4Zm46.35-15.33H550.9a10.21,10.21,0,0,0,10.22,8,10.59,10.59,0,0,0,8.75-4.16h10.3c-2.85,7.37-10.22,12.41-19.27,12.41-11.54,0-20.15-8.4-20.15-19.49s8.61-19.49,20-19.49,20,8.4,20,19.64A14.58,14.58,0,0,1,580.46,300.34Zm26.34-13.21h-8.61v15.19c0,2.92,1.82,4.67,4.89,4.67h3.72v8.68h-5.11c-8.54,0-13-4.08-13-11.75V287.13h-5.91v-8.68h3.36a2.71,2.71,0,0,0,3.06-3v-6.94h9v9.93h8.61Zm29.05.51h-1.39c-7.59,0-11.82,4-11.82,10.3v17.73h-9.49V278.45h9.49v5.62a14.5,14.5,0,0,1,11.82-6.21h1.39Zm21.31,28.91c-11.39,0-20-8.4-20-19.49s8.61-19.49,20-19.49,20,8.4,20,19.49S668.55,316.55,657.16,316.55Zm0-29.78a10.29,10.29,0,1,0,10.22,10.29A10,10,0,0,0,657.16,286.77Zm-96.41-.95a9.91,9.91,0,0,0-9.78,7.59H570.6A9.9,9.9,0,0,0,560.75,285.82Zm-237.49.95a10.29,10.29,0,1,0,10.22,10.29A10,10,0,0,0,323.26,286.77Zm-151.08,0a10.29,10.29,0,1,0,10.22,10.29A10,10,0,0,0,172.18,286.77Zm0,0a10.29,10.29,0,1,0,10.22,10.29A10,10,0,0,0,172.18,286.77Zm151.08,0a10.29,10.29,0,1,0,10.22,10.29A10,10,0,0,0,323.26,286.77Zm237.49-.95a9.91,9.91,0,0,0-9.78,7.59H570.6A9.9,9.9,0,0,0,560.75,285.82Zm0,0a9.91,9.91,0,0,0-9.78,7.59H570.6A9.9,9.9,0,0,0,560.75,285.82Zm-237.49.95a10.29,10.29,0,1,0,10.22,10.29A10,10,0,0,0,323.26,286.77Zm-151.08,0a10.29,10.29,0,1,0,10.22,10.29A10,10,0,0,0,172.18,286.77Zm0,0a10.29,10.29,0,1,0,10.22,10.29A10,10,0,0,0,172.18,286.77Zm151.08,0a10.29,10.29,0,1,0,10.22,10.29A10,10,0,0,0,323.26,286.77Zm0,0a10.29,10.29,0,1,0,10.22,10.29A10,10,0,0,0,323.26,286.77Zm-151.08,0a10.29,10.29,0,1,0,10.22,10.29A10,10,0,0,0,172.18,286.77Zm0,0a10.29,10.29,0,1,0,10.22,10.29A10,10,0,0,0,172.18,286.77Zm151.08,0a10.29,10.29,0,1,0,10.22,10.29A10,10,0,0,0,323.26,286.77Zm0,0a10.29,10.29,0,1,0,10.22,10.29A10,10,0,0,0,323.26,286.77Zm-151.08,0a10.29,10.29,0,1,0,10.22,10.29A10,10,0,0,0,172.18,286.77Zm0,0a10.29,10.29,0,1,0,10.22,10.29A10,10,0,0,0,172.18,286.77Zm151.08,0a10.29,10.29,0,1,0,10.22,10.29A10,10,0,0,0,323.26,286.77Zm0,0a10.29,10.29,0,1,0,10.22,10.29A10,10,0,0,0,323.26,286.77Zm-151.08,0a10.29,10.29,0,1,0,10.22,10.29A10,10,0,0,0,172.18,286.77Zm0,0a10.29,10.29,0,1,0,10.22,10.29A10,10,0,0,0,172.18,286.77Zm0,0a10.29,10.29,0,1,0,10.22,10.29A10,10,0,0,0,172.18,286.77Zm0,0a10.29,10.29,0,1,0,10.22,10.29A10,10,0,0,0,172.18,286.77Zm0,0a10.29,10.29,0,1,0,10.22,10.29A10,10,0,0,0,172.18,286.77Z"/></g></g></svg>