<svg xmlns="http://www.w3.org/2000/svg" viewBox="0 0 781.66 629.99"><defs><style>.cls-1{fill:#fff;}.cls-2{fill:#d4145a;}.cls-3{fill:#8cc63f;}.cls-4{fill:#29abe2;}.cls-5{fill:#662d91;}.cls-6{fill:#1b1464;}</style></defs><g id="Layer_2" data-name="Layer 2"><g id="Layer_1-2" data-name="Layer 1"><path class="cls-1" d="M781.66,316.16a80.63,80.63,0,0,1-80.5,80.5H694a315.07,315.07,0,0,1-608.57,0H80.5a80.5,80.5,0,0,1,0-161h4.27a315.07,315.07,0,0,1,609.78,0h6.61A80.6,80.6,0,0,1,781.66,316.16Z"/><path class="cls-2" d="M389.66,611.33c-136.34,0-251.17-92.08-285.7-217.44H221.73a186.1,186.1,0,0,0,100.38,93.93Z"/><path class="cls-3" d="M389.66,18.67,322.11,142.16A186.23,186.23,0,0,0,221.73,236.1H104C138.49,110.73,253.32,18.67,389.66,18.67Z"/><path class="cls-4" d="M675.36,236.1H557.6a186.25,186.25,0,0,0-100.39-93.94L389.66,18.67C526,18.67,640.83,110.73,675.36,236.1Z"/><path class="cls-5" d="M675.36,393.89C640.83,519.25,526,611.33,389.66,611.33l67.55-123.51A186.12,186.12,0,0,0,557.6,393.89Z"/><rect class="cls-6" x="17.5" y="253.16" width="744.32" height="123.67" rx="61.83"/><path class="cls-1" d="M98.38,293.46H84.66V284h37.51v9.48H108.45v40.88H98.38Z"/><path class="cls-1" d="M128,281.79h9.49v19.7a15,15,0,0,1,11.82-5.25c8.76,0,14.53,5.69,14.53,14.45v23.65h-9.49V313.76c0-5-3.21-8.33-8.1-8.33-5.26,0-8.76,3.36-8.76,8.47v20.44H128Z"/><path class="cls-1" d="M169.68,315.73c0-11.1,8.62-19.49,20-19.49s20,8.39,20,19.49-8.61,19.48-20,19.48S169.68,326.82,169.68,315.73Zm30.22,0A10.22,10.22,0,1,0,189.68,326,10,10,0,0,0,199.9,315.73Z"/><path class="cls-1" d="M215.74,297.11h9.48v5.62a14.53,14.53,0,0,1,11.83-6.2h1.39v9.78h-1.39c-7.59,0-11.83,4-11.83,10.29v17.74h-9.48Z"/><path class="cls-1" d="M243.25,297.11h9.49v4.16a15.33,15.33,0,0,1,11.82-5c8.76,0,14.53,5.69,14.53,14.45v23.65H269.6V313.76c0-5-3.21-8.33-8.1-8.33-5.26,0-8.76,3.36-8.76,8.47v20.44h-9.49Z"/><path class="cls-1" d="M284.71,323.17h9.56c0,2.56,2.48,4.23,5.91,4.23,3.14,0,5.33-1.46,5.33-3.43,0-6.05-20.22-2.55-20.22-15.91,0-7.52,6.28-11.82,14.45-11.82,8.69,0,14.67,4.82,14.67,11.46h-9.49c0-2.19-2.11-3.73-5.25-3.73-2.92,0-4.89,1.32-4.89,3.22,0,5.91,20.29,2.48,20.29,15.84,0,7.29-6,12.18-14.89,12.18C290.91,335.21,284.71,330.18,284.71,323.17Z"/><path class="cls-1" d="M321.05,281.79h9.49v19.7a16,16,0,0,1,12.12-5.25c10.36,0,18.1,8.39,18.1,19.49s-7.74,19.48-18.1,19.48A16,16,0,0,1,330.54,330v4.38h-9.49ZM351,315.73A10.22,10.22,0,1,0,340.76,326,10,10,0,0,0,351,315.73Z"/><path class="cls-1" d="M366.45,321V297.11h9.49v21.1c0,4.74,3.06,7.81,7.66,7.81,4.89,0,8.18-3.14,8.18-8V297.11h9.48v37.23h-9.48v-4.09a14.4,14.4,0,0,1-11.32,5C372.07,335.21,366.45,329.59,366.45,321Z"/><path class="cls-1" d="M409.58,297.11h9.49v5.62a14.52,14.52,0,0,1,11.82-6.2h1.39v9.78h-1.39c-7.59,0-11.82,4-11.82,10.29v17.74h-9.49Z"/><path class="cls-1" d="M449.94,334l-15.25-36.86h10.8l9.63,25.33,9.64-25.33h10.65l-21.24,51.1H444Z"/><path class="cls-1" d="M496.07,284h12.55l15.25,27.15L539.2,284h12.41v50.36H541.54V298.79l-14.82,26.5H521l-14.82-26.5v35.55H496.07Z"/><path class="cls-1" d="M558.25,315.73c0-11.1,8.61-19.49,20-19.49s20,8.39,20,19.63A14.74,14.74,0,0,1,598,319H568.39a10.21,10.21,0,0,0,10.22,8,10.62,10.62,0,0,0,8.76-4.16h10.29c-2.84,7.37-10.22,12.4-19.27,12.4C566.86,335.21,558.25,326.82,558.25,315.73Zm10.22-3.65H588.1a10.14,10.14,0,0,0-19.63,0Z"/><path class="cls-1" d="M606.2,322.59V305.8h-5.91v-8.69h3.35c2,0,3.07-1,3.07-3v-6.93h9v9.92h8.61v8.69h-8.61V321c0,2.92,1.82,4.67,4.89,4.67h3.72v8.69h-5.11C610.65,334.34,606.2,330.25,606.2,322.59Z"/><path class="cls-1" d="M630.65,297.11h9.49v5.62a14.52,14.52,0,0,1,11.82-6.2h1.39v9.78H652c-7.59,0-11.82,4-11.82,10.29v17.74h-9.49Z"/><path class="cls-1" d="M654.66,315.73c0-11.1,8.61-19.49,20-19.49s20,8.39,20,19.49-8.61,19.48-20,19.48S654.66,326.82,654.66,315.73Zm30.22,0A10.22,10.22,0,1,0,674.66,326,10,10,0,0,0,684.88,315.73Z"/></g></g></svg>